<svg width="236" height="46" viewBox="0 0 236 46" fill="none" xmlns="http://www.w3.org/2000/svg">
<path fill-rule="evenodd" clip-rule="evenodd" d="M92.5823 21.6572C90.7052 21.6572 89.1815 23.1807 89.1815 25.0578C89.1815 26.939 90.7052 28.4611 92.5823 28.4611C94.4607 28.4611 95.9823 26.939 95.9823 25.0578C95.9823 23.1807 94.4607 21.6572 92.5823 21.6572ZM230.949 19.1602C233.179 19.1602 234.809 20.4091 235.878 21.6572V15.6271C234.127 14.4387 232.016 13.9629 230.181 13.9629C224.545 13.9629 219.647 18.002 219.647 24.9507C219.647 31.6042 224.098 35.9413 230.269 35.9413C232.049 35.9413 234.007 35.6715 235.878 34.3965V28.4824C234.809 29.5837 233.12 30.7433 230.949 30.7433C227.628 30.7433 225.638 28.2792 225.638 25.1292C225.638 21.7135 227.746 19.1602 230.949 19.1602ZM220.284 14.5581H213.459L207.196 23.2878V14.5581H201.381L201.383 35.3467H207.196V26.4055L213.218 35.3467H220.493L212.39 24.6246L220.284 14.5581ZM184.207 27.0317V14.5581H178.598V35.3467H184.296L192.338 22.8725V35.3467H197.947V14.5581H192.248L184.207 27.0317ZM167.353 23.9112H165.694V19.1321H167.353C169.846 19.1321 170.201 20.4667 170.201 21.5069C170.201 22.3974 169.935 23.9112 167.353 23.9112ZM168.628 14.5581H159.875V35.3467H165.694V28.4824H168.628C174.505 28.4824 176.197 24.3891 176.197 21.5069C176.197 18.6549 174.535 14.5581 168.628 14.5581ZM142.547 19.5454H147.114V35.3467H152.932V19.5454H157.501V14.5581H142.547V19.5454ZM126.431 27.0317V14.5581H120.824V35.3467H126.523L134.561 22.8725V35.3467H140.171V14.5581H134.475L126.431 27.0317ZM109.102 31.1861H106.611V26.8223H109.102C110.943 26.8223 112.012 27.3578 112.012 28.9925C112.012 30.654 110.914 31.1861 109.102 31.1861ZM109.668 22.6644H106.611V19.5454H116.136V14.5581H100.795L100.794 35.3467L109.668 35.3467C111.179 35.3467 117.827 35.4044 117.827 28.9026C117.827 22.6349 111.24 22.6644 109.668 22.6644ZM68.242 24.9507C68.242 31.6042 72.6931 35.9413 78.8648 35.9413C80.6471 35.9413 82.6051 35.6715 84.4753 34.3965V28.4824C83.4037 29.5837 81.7125 30.7433 79.5474 30.7433C76.2228 30.7433 74.236 28.2792 74.236 25.1292C74.236 21.7135 76.3422 19.1602 79.5474 19.1602C81.7722 19.1602 83.4037 20.4091 84.4753 21.6572V15.6271C82.7203 14.4387 80.6156 13.9629 78.7756 13.9629C73.137 13.9629 68.242 18.002 68.242 24.9507ZM56.0647 19.3387H59.2418V35.3467H64.6135V14.5581H56.0647V19.3387Z" fill="#424242"/>
<path fill-rule="evenodd" clip-rule="evenodd" d="M22.8378 0C21.1364 0 19.4817 0.191552 17.8873 0.545821V22.8723C17.8873 25.6083 20.1163 27.8396 22.8508 27.8396C25.584 27.8396 27.8123 25.6083 27.8123 22.8737C27.8123 20.2455 25.7604 18.0883 23.1808 17.9167V13.9407C27.9475 14.1138 31.7832 18.0602 31.7832 22.8737C31.7832 27.7964 27.7705 31.8141 22.8508 31.8141C17.9291 31.8141 13.9171 27.7964 13.9171 22.8723V1.8091C13.3532 2.04872 12.8023 2.31442 12.2624 2.60003V22.8723C12.2631 28.7074 17.0201 33.466 22.8508 33.466C28.6822 33.466 33.4372 28.7074 33.4372 22.8737C33.4372 17.1484 28.8613 12.4598 23.1808 12.2834V8.30884C31.047 8.48666 37.406 14.961 37.406 22.8737C37.406 30.8983 30.8673 37.4406 22.8508 37.4406C14.8323 37.4406 8.29156 30.8983 8.29156 22.8723V5.23645C3.22854 9.42657 0 15.7629 0 22.8551C0 35.4777 10.2248 45.713 22.8385 45.713C35.4542 45.713 45.6763 35.4777 45.6763 22.8551C45.6763 10.2326 35.4542 0 22.8378 0Z" fill="#B5B5B5"/>
</svg>
