<svg width="152" height="61" viewBox="0 0 152 61" fill="none" xmlns="http://www.w3.org/2000/svg">
<g clip-path="url(#clip0)">
<path d="M34.173 58.0864L4.443 60.4034L0 15.5224L2.363 15.3364C3.665 15.2344 4.618 14.0324 4.483 12.6644L4.254 10.3524C4.118 8.98344 5.129 7.77644 6.5 7.67044L22.9 6.39644C24.27 6.28844 25.504 7.31944 25.639 8.68844L25.867 10.9994L26.114 13.4884L34.519 12.8334L65.603 13.3104L68.707 50.8634L63.05 55.8394L34.173 58.0864Z" fill="#C6C5C5"/>
<path d="M45.646 0L8.57497 19.285L4.59497 60.404L41.514 57.506L62.273 55.876L75.544 54.834L79.52 13.717L45.646 0Z" fill="#9B9B9B"/>
<path d="M28.3189 43.7034L24.0919 36.8154H20.6529V43.7034H16.5259V24.3184H25.5939C29.6329 24.3184 32.1039 26.9644 32.1039 30.5674C32.1039 33.9964 30.3709 35.8274 28.2789 36.3224L33.0559 43.7034H28.3189ZM27.8909 30.5664C27.8909 28.9394 26.6399 27.9514 24.9849 27.9514H20.6539V33.1814H24.9849C26.6399 33.1824 27.8909 32.1954 27.8909 30.5664Z" fill="white"/>
<path d="M35.6338 43.7034V24.3184H49.3528V27.9524H39.7608V32.0494H48.3148V35.6824H39.7608V40.0714H49.3528V43.7044H35.6338V43.7034Z" fill="white"/>
<path d="M51.6499 34.025C51.6499 27.893 56.2999 23.998 61.9679 23.998C66.0079 23.998 68.5369 26.032 69.9899 28.33L66.5589 30.189C65.6889 28.823 64.0329 27.66 61.9679 27.66C58.4499 27.66 55.8929 30.363 55.8929 34.025C55.8929 37.687 58.4509 40.39 61.9679 40.39C63.6829 40.39 65.3119 39.633 66.0949 38.907V36.838H60.9799V33.184H70.2209V40.42C68.2449 42.628 65.4849 44.082 61.9679 44.082C56.3009 44.081 51.6499 40.129 51.6499 34.025Z" fill="white"/>
<path d="M80.2781 41.6685C80.2781 40.3915 81.3541 39.3145 82.6321 39.3145C83.9131 39.3145 84.9861 40.3895 84.9861 41.6685C84.9861 42.9475 83.9131 44.0225 82.6321 44.0225C81.3541 44.0235 80.2781 42.9485 80.2781 41.6685Z" fill="#424242"/>
<path d="M100.065 43.7034L95.4232 36.8154H92.4002V43.7034H88.2732V24.3184H97.3412C101.38 24.3184 103.852 26.9644 103.852 30.5674C103.852 33.9964 101.701 35.8274 99.6092 36.3224L104.802 43.7034H100.065ZM99.6392 30.5664C99.6392 28.9394 98.3872 27.9514 96.7312 27.9514H92.4002V33.1814H96.7302C98.3872 33.1824 99.6392 32.1954 99.6392 30.5664Z" fill="#424242"/>
<path d="M106.964 35.9724V24.3184H111.15V35.8264C111.15 38.5314 112.302 40.3904 115.296 40.3904C118.288 40.3904 119.411 38.5314 119.411 35.8264V24.3184H123.628V35.9434C123.628 40.7684 121.193 44.0534 115.296 44.0534C109.394 44.0514 106.964 40.7394 106.964 35.9724Z" fill="#424242"/>
</g>
<defs>
<clipPath id="clip0">
<rect width="151.41" height="60.404" fill="white"/>
</clipPath>
</defs>
</svg>
